<svg width="500" height="500" xmlns="http://www.w3.org/2000/svg">

 <g>
  <title>background</title>
  <rect fill="none" id="canvas_background" height="402" width="582" y="-1" x="-1"/>
 </g>
 <g>
  <title>Layer 1</title>
  <path id="XMLID_257_" fill="#5DBFCC" d="m444.878998,52.604c-48.052002,-48.053 -126.238007,-48.053 -174.292023,0l-218.499985,218.500004c-48.053,48.053009 -48.052001,126.238983 0,174.292999c48.052002,48.052002 126.238998,48.053009 174.292007,0l218.5,-218.501007c48.054016,-48.052994 48.053009,-126.239998 0,-174.291996zm-373.354996,363.639988c-7.040001,0 -12.747002,-5.705994 -12.747002,-12.746002s5.707001,-12.747009 12.747002,-12.747009c7.040001,0 12.747002,5.707001 12.747002,12.747009s-5.707001,12.746002 -12.747002,12.746002zm86.039993,-172.422989c-2.895996,2.904007 -71.025009,71.228989 -80.819992,80.819016c-8.096001,7.927979 -14.461002,23.528992 -9.303001,39.047974c1.741997,5.240997 -1.095001,10.902008 -6.336002,12.644012c-1.046001,0.347992 -2.110001,0.514008 -3.154999,0.514008c-4.190002,0 -8.094002,-2.654022 -9.487999,-6.848999c-7.908001,-23.794006 1.479,-47.102997 14.289997,-59.645996c9.708992,-9.507019 79.940994,-79.940018 80.649002,-80.650009c3.899994,-3.911011 10.231003,-3.921005 14.143005,-0.021011c3.910995,3.899002 3.919998,10.230011 0.019989,14.141006zm266.940002,-37.300995l-123.570007,123.569992l-133.540985,-133.541l123.570007,-123.57c36.816986,-36.817997 96.723999,-36.817005 133.541992,0c36.816986,36.818001 36.816986,96.724007 -0.001007,133.541008z"/>
 </g>
</svg>